<svg width="147" height="19" viewBox="0 0 147 19" fill="none" xmlns="http://www.w3.org/2000/svg">
<path d="M1.147 1.01488H14.491V3.77488H9.451V17.8149H6.211V3.77488H1.147V1.01488ZM14.7571 9.41488C14.7571 3.87088 18.6211 0.774879 23.4691 0.774879C28.4371 0.774879 32.2771 3.63088 32.2771 9.41488C32.2771 14.9349 28.4371 18.0549 23.4691 18.0549C18.6211 18.0549 14.7571 14.9349 14.7571 9.41488ZM18.0211 9.41488C18.0211 13.1589 20.3971 14.9829 23.4691 14.9829C26.6371 14.9829 29.0371 13.1589 29.0371 9.41488C29.0371 5.67088 26.6371 3.82288 23.4691 3.82288C20.3971 3.82288 18.0211 5.67088 18.0211 9.41488ZM38.0307 1.01488V17.8149H34.7907V1.01488H38.0307ZM40.3587 10.7829L40.3827 6.89488L45.8787 1.01488H50.1267L42.6387 8.50288L50.4867 17.8149H46.2387L40.3587 10.7829ZM78.1242 17.8149L68.7882 4.15888H52.0362V1.01488H69.9642L78.0762 12.5829H78.1962V1.01488H81.2922V17.8149H78.1242ZM67.5402 17.8149V6.10288L70.6842 10.5909V17.8149H67.5402ZM64.4682 10.9029H52.0362V7.92688H64.4682V10.9029ZM52.0362 17.8149V14.6469H64.4682V17.8149H52.0362Z" fill="black"/>
<path d="M88.6724 1.01488H95.6084C100.72 1.01488 102.952 4.63888 102.952 9.41488C102.952 14.1669 100.72 17.8149 95.6084 17.8149H88.6724V14.6469H94.5764C97.4324 14.6469 99.5444 13.5909 99.5444 9.41488C99.5444 5.26288 97.4084 4.15888 94.5524 4.15888H88.6724V1.01488ZM105.551 17.8149V1.01488H108.791V17.8149H105.551ZM124.834 6.53488H121.594C121.594 4.61488 120.082 3.39088 117.898 3.39088C116.314 3.39088 114.562 3.89488 114.562 5.33488C114.562 8.91088 124.834 7.06288 124.834 13.1589C124.834 16.1109 122.122 18.0549 118.234 18.0549C113.986 18.0549 111.178 16.2549 111.178 12.2709H114.466C114.466 14.2149 115.834 15.4149 118.162 15.4149C120.178 15.4149 121.594 14.5269 121.594 13.1589C121.594 9.19888 111.418 11.4069 111.418 5.28688C111.418 2.69488 114.01 0.774879 117.874 0.774879C122.17 0.774879 124.834 2.76688 124.834 6.53488ZM135.056 18.0549C129.32 18.0549 126.416 14.1669 126.416 9.41488C126.416 4.63888 129.584 0.774879 134.696 0.774879C139.256 0.774879 142.496 3.10288 142.976 7.23088H139.736C139.256 5.23888 137.768 3.63088 134.912 3.63088C131.912 3.63088 129.584 5.86288 129.584 9.17488C129.584 12.3189 131.672 15.2229 134.96 15.2229C137.432 15.2229 139.136 13.8549 139.688 11.7669H142.976C142.424 15.2469 139.832 18.0549 135.056 18.0549Z" fill="#60A289"/>
</svg>
